<svg width="207" height="28" viewBox="0 0 207 28" fill="none" xmlns="http://www.w3.org/2000/svg">
<path d="M11.72 12.64L21.6 1.56H26.12L17.16 11.28L23.24 27H14.52L11 15.84L8.64 27H0L5.4 1.6H14.08L11.72 12.64ZM35.2159 12.36H35.4959C36.0026 11.8533 36.5893 11.3867 37.2559 10.96C37.8159 10.5867 38.4826 10.2533 39.2559 9.96C40.0293 9.66667 40.8959 9.52 41.8559 9.52C43.2426 9.52 44.3893 9.88 45.2959 10.6C46.2026 11.2933 46.6559 12.2533 46.6559 13.48C46.6559 13.8533 46.6159 14.28 46.5359 14.76C46.4559 15.2133 46.3626 15.7067 46.2559 16.24C46.1493 16.7467 46.0293 17.2667 45.8959 17.8C45.7893 18.3067 45.6959 18.7733 45.6159 19.2L43.9359 27H35.8159L38.0159 16.56C38.0693 16.2133 38.1359 15.8667 38.2159 15.52C38.2959 15.1467 38.3359 14.8133 38.3359 14.52C38.3359 14.12 38.2293 13.8 38.0159 13.56C37.8293 13.2933 37.5359 13.16 37.1359 13.16C36.6559 13.16 36.1893 13.3333 35.7359 13.68C35.3093 14.0267 34.9759 14.3333 34.7359 14.6L32.0959 27H23.9359L29.6159 0.119998H37.8159L35.2159 12.36ZM56.4934 18.96C56.3868 19.5467 56.3068 20.1067 56.2534 20.64C56.2268 21.1733 56.2134 21.6533 56.2134 22.08C56.2134 22.32 56.2268 22.5867 56.2534 22.88C56.2801 23.1733 56.3334 23.4533 56.4134 23.72C56.5201 23.96 56.6534 24.1733 56.8134 24.36C57.0001 24.52 57.2534 24.6 57.5734 24.6C57.8134 24.6 58.0801 24.52 58.3734 24.36C58.6934 24.2 59.0001 23.9733 59.2934 23.68C59.6134 23.3867 59.9068 23.0267 60.1734 22.6C60.4668 22.1733 60.6934 21.6933 60.8534 21.16H67.4134L66.3734 25.44C65.8401 25.7867 65.2268 26.08 64.5334 26.32C63.8401 26.56 63.1068 26.76 62.3334 26.92C61.5601 27.0533 60.7734 27.1467 59.9734 27.2C59.1734 27.28 58.4134 27.32 57.6934 27.32C56.3601 27.32 55.1201 27.2 53.9734 26.96C52.8268 26.72 51.8268 26.3067 50.9734 25.72C50.1201 25.1333 49.4401 24.36 48.9334 23.4C48.4534 22.4133 48.2134 21.2 48.2134 19.76C48.2134 18.4533 48.4134 17.1733 48.8134 15.92C49.2401 14.6667 49.9334 13.56 50.8934 12.6C51.8801 11.6133 53.1868 10.8267 54.8134 10.24C56.4668 9.65333 58.5201 9.36 60.9734 9.36C63.6401 9.36 65.6401 9.77333 66.9734 10.6C68.3334 11.4267 69.0134 12.72 69.0134 14.48C69.0134 15.2 68.9068 15.9867 68.6934 16.84C68.4801 17.6667 68.1601 18.3733 67.7334 18.96H56.4934ZM61.8134 14.2C61.8134 13.3733 61.6801 12.8133 61.4134 12.52C61.1468 12.2267 60.8268 12.08 60.4534 12.08C60.0268 12.08 59.6268 12.2267 59.2534 12.52C58.9068 12.7867 58.5868 13.16 58.2934 13.64C58.0001 14.0933 57.7334 14.6267 57.4934 15.24C57.2534 15.8267 57.0534 16.4533 56.8934 17.12H61.4534C61.5068 16.8 61.5601 16.4667 61.6134 16.12C61.6668 15.8267 61.7068 15.5067 61.7334 15.16C61.7868 14.8133 61.8134 14.4933 61.8134 14.2ZM77.4084 27H69.2484L74.9284 0.119998H83.1284L77.4084 27ZM89.0234 27L94.4234 1.6H105.183C106.837 1.6 108.277 1.77333 109.503 2.12C110.757 2.44 111.783 2.98667 112.583 3.76C113.41 4.53333 114.023 5.54667 114.423 6.8C114.85 8.05333 115.063 9.58667 115.063 11.4C115.063 13.3467 114.81 15.2533 114.303 17.12C113.823 18.9867 113.01 20.6533 111.863 22.12C110.717 23.5867 109.21 24.7733 107.343 25.68C105.503 26.56 103.223 27 100.503 27H89.0234ZM99.9834 24.2C100.863 24.2 101.637 23.84 102.303 23.12C102.997 22.3733 103.583 21.44 104.063 20.32C104.57 19.1733 104.983 17.92 105.303 16.56C105.65 15.1733 105.917 13.84 106.103 12.56C106.317 11.28 106.463 10.1333 106.543 9.12C106.65 8.10667 106.703 7.38667 106.703 6.96C106.703 6.13333 106.53 5.49333 106.183 5.04C105.863 4.56 105.29 4.32 104.463 4.32H102.543L98.2634 24.2H99.9834ZM124.228 18.96C124.121 19.5467 124.041 20.1067 123.988 20.64C123.961 21.1733 123.948 21.6533 123.948 22.08C123.948 22.32 123.961 22.5867 123.988 22.88C124.014 23.1733 124.068 23.4533 124.148 23.72C124.254 23.96 124.388 24.1733 124.548 24.36C124.734 24.52 124.988 24.6 125.308 24.6C125.548 24.6 125.814 24.52 126.108 24.36C126.428 24.2 126.734 23.9733 127.028 23.68C127.348 23.3867 127.641 23.0267 127.908 22.6C128.201 22.1733 128.428 21.6933 128.588 21.16H135.148L134.108 25.44C133.574 25.7867 132.961 26.08 132.268 26.32C131.574 26.56 130.841 26.76 130.068 26.92C129.294 27.0533 128.508 27.1467 127.708 27.2C126.908 27.28 126.148 27.32 125.428 27.32C124.094 27.32 122.854 27.2 121.708 26.96C120.561 26.72 119.561 26.3067 118.708 25.72C117.854 25.1333 117.174 24.36 116.668 23.4C116.188 22.4133 115.948 21.2 115.948 19.76C115.948 18.4533 116.148 17.1733 116.548 15.92C116.974 14.6667 117.668 13.56 118.628 12.6C119.614 11.6133 120.921 10.8267 122.548 10.24C124.201 9.65333 126.254 9.36 128.708 9.36C131.374 9.36 133.374 9.77333 134.708 10.6C136.068 11.4267 136.748 12.72 136.748 14.48C136.748 15.2 136.641 15.9867 136.428 16.84C136.214 17.6667 135.894 18.3733 135.468 18.96H124.228ZM129.548 14.2C129.548 13.3733 129.414 12.8133 129.148 12.52C128.881 12.2267 128.561 12.08 128.188 12.08C127.761 12.08 127.361 12.2267 126.988 12.52C126.641 12.7867 126.321 13.16 126.028 13.64C125.734 14.0933 125.468 14.6267 125.228 15.24C124.988 15.8267 124.788 16.4533 124.628 17.12H129.188C129.241 16.8 129.294 16.4667 129.348 16.12C129.401 15.8267 129.441 15.5067 129.468 15.16C129.521 14.8133 129.548 14.4933 129.548 14.2ZM147.263 17.08L156.583 9.8H161.863L153.903 16.32L159.863 27H150.903L146.823 18.96L145.143 27H136.983L142.663 0.119998H150.863L147.263 17.08ZM172.208 12.36H172.488C172.995 11.8533 173.581 11.3867 174.248 10.96C174.808 10.5867 175.475 10.2533 176.248 9.96C177.021 9.66667 177.888 9.52 178.848 9.52C180.235 9.52 181.381 9.88 182.288 10.6C183.195 11.2933 183.648 12.2533 183.648 13.48C183.648 13.8533 183.608 14.28 183.528 14.76C183.448 15.2133 183.355 15.7067 183.248 16.24C183.141 16.7467 183.021 17.2667 182.888 17.8C182.781 18.3067 182.688 18.7733 182.608 19.2L180.928 27H172.808L175.008 16.56C175.061 16.2133 175.128 15.8667 175.208 15.52C175.288 15.1467 175.328 14.8133 175.328 14.52C175.328 14.12 175.221 13.8 175.008 13.56C174.821 13.2933 174.528 13.16 174.128 13.16C173.648 13.16 173.181 13.3333 172.728 13.68C172.301 14.0267 171.968 14.3333 171.728 14.6L169.088 27H160.928L166.608 0.119998H174.808L172.208 12.36ZM197.366 9.36C200.539 9.36 202.846 9.92 204.286 11.04C205.806 12.2133 206.566 14.16 206.566 16.88C206.566 18.56 206.286 20.08 205.726 21.44C205.166 22.7733 204.379 23.88 203.366 24.76C201.339 26.4667 198.406 27.32 194.566 27.32C191.286 27.32 188.939 26.6933 187.526 25.44C186.006 24.1333 185.246 22.1733 185.246 19.56C185.246 17.8267 185.592 16.2533 186.286 14.84C187.006 13.4267 188.032 12.2533 189.366 11.32C191.312 10.0133 193.979 9.36 197.366 9.36ZM194.646 24.6C195.312 24.6 195.886 24.2267 196.366 23.48C196.872 22.7333 197.272 21.8267 197.566 20.76C197.859 19.6667 198.072 18.5467 198.206 17.4C198.366 16.2267 198.446 15.2133 198.446 14.36C198.446 13.6133 198.366 13.0533 198.206 12.68C198.072 12.28 197.766 12.08 197.286 12.08C196.566 12.08 195.939 12.4667 195.406 13.24C194.899 14.0133 194.486 14.9333 194.166 16C193.846 17.0667 193.606 18.16 193.446 19.28C193.312 20.4 193.246 21.3067 193.246 22C193.246 23.7333 193.712 24.6 194.646 24.6Z" fill="#E58025"/>
</svg>
